<svg width="443" height="403" viewBox="0 0 443 403" fill="none" xmlns="http://www.w3.org/2000/svg">
<path d="M46.5 400.2C40.5 395.8 27.7 382.9 26.1 379.7C24.8 377.3 24.9 376.5 27.1 371.8C28.4 369 30.6 365.2 32 363.3C33.4 361.5 36.1 357.7 38 354.9C39.9 352.1 42.1 349.2 42.7 348.5C43.8 347.4 47.5 342.7 56 331.8C58.5 328.5 58 325.9 54.5 324C53.1 323.3 52 322.3 52 322C52 321.6 50.1 319.3 47.8 316.9C39 307.8 33.4 301 31 296.3C29.6 293.7 27.3 289.7 25.8 287.4C21.5 280.9 13.4 263.3 10.3 253.5C5.19999 237.8 2.90002 230.2 3.20002 229.3C3.30002 228.9 2.89999 226.3 2.29999 223.5C-0.700007 210.8 0.60003 175.7 4.40003 163C5.20003 160.5 6.10001 156.9 6.50001 155C6.90001 153.1 7.50003 151.1 7.90003 150.5C8.20003 150 8.49998 149.3 8.59998 149C9.79998 142.2 10.5 139.4 12.2 134C13.3 130.4 14.8 126.5 15.6 125.3C16.4 124.1 17 122.2 17 121C17 119.9 17.5 119 18 119C18.6 119 19 118.3 19 117.4C19 115.2 25.4 104.2 29 100.1C30.6 98.3 32 96.4 32 96.1C32 95.7 35.3 92 39.3 87.8C43.2 83.6 49 77.5 52 74.3C58.8 67.2 70.6 58 73 58C73.6 58 74 57.6 74 57C74 56.5 74.5 56 75.2 56C75.9 56 77.8 54.7001 79.5 53.2001C83.8 49.1001 100.2 38.9001 109 34.7001C116.5 31.1001 132.6 26 136.5 26C137.6 26 140.4 25.3 142.7 24.5C148.5 22.5 155.3 21.8 171.5 21.8C183.9 21.8 201.8 22.8 206 23.6C206.8 23.8 209.1 24.2 211 24.5C219.8 25.9 226.6 27.4 227.5 28C228.1 28.4 230.3 29.1 232.5 29.4C243.6 31.4 273.5 43.8 279.5 48.9C281.8 50.9 286.7 54 287.5 54C288.6 54 287.9 46 286.4 42.4C283.6 35.5 277.9 31.9 264.5 28.4C248.9 24.3 198.5 14 193.9 14C192.4 14 189.6 13.3 187.6 12.5C184.7 11.3 183.9 10.4 184.2 8.80002C184.6 5.70003 188 5.10004 209.5 4.50004C236.2 3.70004 281.8 1.90003 286 1.40003C287.9 1.20003 296.9 0.700031 306 0.400031C325.6 -0.399969 325 -0.599951 344.5 14.2C345.1 14.7 348.2 16.8 351.5 19C357.8 23.1 374.7 36.2 379 40.3C380.4 41.6 383.3 44.1 385.5 45.9C387.7 47.7 392.7 52.1001 396.7 55.7001C403.7 62.0001 403.8 62.3001 404.5 68.2001C405.1 72.8001 405.9 74.9 408.3 77.6C411.5 81.3 415.8 84.0001 420.2 84.9001C424.1 85.8001 443 104.5 443 107.5C443 110.5 437.7 117.1 424.9 130C415 140 402.5 149.5 391.5 155.4C388.8 156.9 385.2 159 383.5 160C377.3 163.9 375 162.8 361.6 149.5C355.7 143.6 354.4 141.2 353.5 134.8C352.7 128.8 348.4 122.5 343.1 119.4C340.7 118.1 338.7 117 338.5 117C337.9 117 342.9 128.3 343.8 128.9C344.3 129.2 345.1 130.6 345.5 132C345.9 133.4 346.8 135.9 347.5 137.5C350.4 144.1 354.8 158.2 355.5 163C358.2 180.2 357.9 213.8 355 231.3C353.8 238 352 246.2 350.8 249.4C347.8 258 331.4 291.2 327.9 295.7C326.3 297.8 324.7 300 324.3 300.5C317 310.4 290.8 336.9 286 339.4C284.3 340.2 282.4 341.3 276.5 345.1C273.2 347.2 257.8 355 256 355.5C254.5 356 249.3 358.1 247.9 358.9C246.3 359.8 238.6 362.3 236.5 362.6C236 362.6 234.8 363 234 363.3C231.1 364.5 223.5 366.3 220.4 366.5C218.7 366.6 216.5 367 215.4 367.4C207 370 151.6 369.5 141.9 366.7C138.9 365.8 132.5 363.9 127.5 362.4C122.6 360.9 118.1 359.6 117.5 359.5C117 359.4 115.2 358.9 113.7 358.2C112.1 357.5 110.5 357 110.1 357C109.8 357 102.2 364.4 93.5 373.5C81.2 386.2 75.3 391.4 68.2 396.2C56.4 403.8 52.4 404.6 46.5 400.2V400.2Z" fill="#FFDA0D"/>
<path d="M46.5 400.2C40.5 395.8 27.7 382.9 26.1 379.7C24.8 377.3 24.9 376.5 27.1 371.8C28.4 369 30.6 365.2 32 363.3C33.4 361.5 36.1 357.7 38 354.9C39.9 352.1 42.1 349.2 42.7 348.5C43.8 347.4 47.5 342.7 56 331.8C58.5 328.5 58 325.9 54.5 324C53.1 323.3 52 322.3 52 322C52 321.6 50.1 319.3 47.8 316.9C39 307.8 33.4 301 31 296.3C29.6 293.7 27.3 289.7 25.8 287.4C21.5 280.9 13.4 263.3 10.3 253.5C5.19999 237.8 2.90002 230.2 3.20002 229.3C3.30002 228.9 2.89999 226.3 2.29999 223.5C-0.700007 210.8 0.60003 175.7 4.40003 163C5.20003 160.5 6.10001 156.9 6.50001 155C6.90001 153.1 7.50003 151.1 7.90003 150.5C8.20003 150 8.49998 149.3 8.59998 149C9.79998 142.2 10.5 139.4 12.2 134C13.3 130.4 14.8 126.5 15.6 125.3C16.4 124.1 17 122.2 17 121C17 119.9 17.5 119 18 119C18.6 119 19 118.3 19 117.4C19 115.2 25.4 104.2 29 100.1C30.6 98.3 32 96.4 32 96.1C32 95.7 35.3 92 39.3 87.8C43.2 83.6 49 77.5 52 74.3C58.8 67.2 70.6 58 73 58C73.6 58 74 57.6 74 57C74 56.5 74.5 56 75.2 56C75.9 56 77.8 54.7001 79.5 53.2001C83.8 49.1001 100.2 38.9001 109 34.7001C116.5 31.1001 132.6 26 136.5 26C137.6 26 140.4 25.3 142.7 24.5C148.3 22.6 157.7 21.7 173 21.8C184.3 21.8 202.2 22.8 206 23.6C206.8 23.8 209.1 24.2 211 24.5C219.8 25.9 226.6 27.4 227.5 28C228.1 28.4 230.3 29.1 232.5 29.4C243.4 31.3 273.7 43.9 279.5 48.9C281.8 50.9 286.7 54 287.5 54C288.6 54 287.9 46 286.4 42.4C283.6 35.5 277.9 31.9 264.5 28.4C248.9 24.3 198.5 14 193.9 14C192.4 14 189.6 13.3 187.6 12.5C184.7 11.3 183.9 10.4 184.2 8.80002C184.6 5.70003 188 5.10004 209.5 4.50004C236.2 3.70004 281.8 1.90003 286 1.40003C287.9 1.20003 296.9 0.700031 306 0.400031C325.6 -0.399969 325 -0.599951 344.5 14.2C345.1 14.7 348.2 16.8 351.5 19C357.8 23.1 374.7 36.2 379 40.3C380.4 41.6 383.3 44.1 385.5 45.9C387.7 47.7 392.7 52.1001 396.7 55.7001C403.7 62.0001 403.8 62.3001 404.5 68.2001C405.1 72.8001 405.9 74.9 408.3 77.6C411.5 81.3 415.8 84.0001 420.2 84.9001C424.1 85.8001 443 104.5 443 107.5C443 110.5 437.7 117.1 424.9 130C415 140 402.5 149.5 391.5 155.4C388.8 156.9 385.2 159 383.5 160C377.3 163.9 375 162.8 361.6 149.5C355.7 143.6 354.4 141.2 353.5 134.8C352.7 128.8 348.4 122.5 343.1 119.4C340.7 118.1 338.7 117 338.5 117C337.9 117 342.9 128.3 343.8 128.9C344.3 129.2 345.1 130.6 345.5 132C345.9 133.4 346.8 135.9 347.5 137.5C350.4 144.1 354.8 158.2 355.5 163C358.2 180.2 357.9 213.8 355 231.3C353.8 238 352 246.2 350.8 249.4C347.8 258 331.4 291.2 327.9 295.7C326.3 297.8 324.7 300 324.3 300.5C317 310.4 290.8 336.9 286 339.4C284.3 340.2 282.4 341.3 276.5 345.1C273.2 347.2 257.8 355 256 355.5C254.5 356 249.3 358.1 247.9 358.9C246.3 359.8 238.6 362.3 236.5 362.6C236 362.6 234.8 363 234 363.3C231.1 364.5 223.5 366.3 220.4 366.5C218.7 366.6 216.5 367 215.4 367.4C207 370 151.6 369.5 141.9 366.7C138.9 365.8 132.5 363.9 127.5 362.4C122.6 360.9 118.1 359.6 117.5 359.5C117 359.4 115.2 358.9 113.7 358.2C112.1 357.5 110.5 357 110.1 357C109.8 357 102.2 364.4 93.5 373.5C81.2 386.2 75.3 391.4 68.2 396.2C56.4 403.8 52.4 404.6 46.5 400.2V400.2ZM196.7 363.6C202.3 363.3 208.6 362.8 210.7 362.5C220.1 361.1 226.9 359.6 231.5 358.1L236.6 356.5L234.6 345.7L232.6 334.8L229.7 335.3C226.2 335.8 222.6 332.4 222.3 328.3C222.2 326.8 221.8 323.5 221.5 321C221.2 318.5 220.7 314 220.6 310.9C220.4 307.8 220.1 304.9 219.8 304.4C219.5 303.9 219.2 298.8 219.2 293.1C219.1 285.8 218.7 282.3 217.8 281.5C216.4 280.2 197.3 277.2 187.3 276.6C181.6 276.3 180.9 276.5 179.5 278.7C178.6 280 176.9 282.1 175.7 283.3C174.5 284.5 171.5 287.7 169.1 290.5C166.8 293.2 161.1 299.6 156.5 304.5C148 313.7 124.1 341.1 118.2 348.4L114.9 352.5L117.2 353.1C118.5 353.4 120.4 354.2 121.5 354.8C122.6 355.4 125.5 356.4 128 357C143.4 361 147.1 361.6 163 362.4C170.2 362.8 174.9 363.5 175.6 364.3C175.8 364.5 178.4 364.5 181.3 364.4C184.1 364.2 191.1 363.9 196.7 363.6V363.6ZM281.5 335.9C282.6 334.9 285.5 332.5 288 330.5C295.5 324.3 302.3 317.7 305.2 313.8L308 310.2L305.5 308.6C303.3 307.1 303.1 306.5 303.1 297.1V287.2L307.8 285.6C310.4 284.6 313.2 283.7 314.1 283.4C316.3 282.6 317.7 286.5 317.6 293.3C317.5 296.4 317.8 299 318.3 299C318.7 299 319 298.6 319 298.1C319 297.7 320 296.2 321.3 294.8C322.5 293.5 324.2 291.1 325 289.6C325.8 288.1 327.5 285.6 328.9 284.2C330.3 282.7 332.8 277.9 334.5 273.5C336.3 269.1 338.2 264.5 338.9 263.2C340 261.2 339.8 261 337.7 261C334.6 261 333.7 259.8 331.5 253.2C330.6 250.3 329.5 248 329.2 248.2C328.8 248.4 325.8 249.8 322.5 251.4C315.7 254.6 314.3 254.2 312.5 249L311.3 245.5L308.4 254.8C305.5 264 305.5 264.1 300.5 266.6C293.6 270.2 292.8 271.1 292.5 276.6C292.3 279.3 292.1 281.5 292 281.5C291.5 281.5 289.9 295.4 289.6 302.5C289.4 305.3 289 308.3 288.5 309.3C287.8 310.9 280.4 315 278.1 315C277.5 315 277 316.9 276.9 319.3C276.9 321.6 276.7 327 276.5 331.2C276.2 339.5 276.7 339.9 281.5 335.9V335.9ZM66.6 317.8C70.8 312 82 298.5 94 284.9C98.1 280.2 106.5 270.5 112.5 263.5C118.6 256.5 125.5 249 128 246.7C137.6 238.1 144.9 230.9 154 221C165.3 208.8 164.1 210 172.6 202.5C176.3 199.2 182.7 193.4 186.7 189.5L194 182.5L190.5 178.6C188.6 176.5 187 174.4 187 173.9C187 173.4 188.3 170.9 190 168.2L192.9 163.5L190.5 161.2C188.1 159 187.1 156 188.9 156C189.3 156 191.9 154 194.6 151.5C200.4 146 202.6 145.8 204.3 150.3C204.8 151.7 205.4 151.9 206.9 151C208 150.5 210.4 149.8 212.2 149.6L215.5 149.3L215.2 141.4L214.9 133.5L221.6 120.2C225.2 112.8 228.3 106.2 228.4 105.4C228.8 102.9 230.4 102.1 239.5 100.3C247.5 98.7 248.5 98.3 249 96C249.3 94.6 249.4 92.5 249.2 91.3C248.8 89.3 248.1 89 244.4 89C242.1 89 239.8 89.5 239.5 90C238.6 91.5 235.2 89.4001 233.6 86.2001C232.9 84.7001 231.7 81.1001 230.9 78.2001C229.4 72.0001 228.1 70.7 224.7 71.6C222.6 72.1 222.1 72.9 221.8 75.8L221.5 79.5L214.3 79.7001C209.1 79.9001 207 79.6001 207 78.7001C206.6 65.5001 206.2 60.2001 205.6 59.2001C205.2 58.5001 207.2 55.7 210.7 52.3C219.2 43.7 225 36.5 225 34.4C225 33.3 218.5 31.2 212.5 30.4C210.9 30.2 208.4 29.8 207 29.5C204.5 29 194.3 28.3 177.2 27.6C166.9 27.2 167.9 26.5 166.5 35.1C165.8 39.9 163.5 41.6 157.7 41.8C152 42 151 42.5 151 44.9C151 47.5 148.4 49.4 146.3 48.5C145.3 48 144.1 47.8 143.6 47.9C142.9 48.1 130.6 46.2 128 45.5C127.7 45.4 124.8 45 121.5 44.6C112.5 43.3 111.5 43.1 111.2 42C110.7 40.5 107.7 40.8001 105.1 42.7001C103.8 43.6001 100.9 45.3 98.8 46.4C92.8 49.6 86.1 55.3 86.3 57C86.6 58.9 88.6 59.8 92.5 59.9C94.2 60 96 60.4 96.5 60.9C97.1 61.4 99.1 62.0001 101 62.2001C103.7 62.4001 104.7 63.1 105.4 65.1C106 66.9 105.9 68.2 105.1 69.1C104.5 69.9 102.1 72.9 99.8 75.8C95 81.9 92 83 80.7 83.1C74 83.2 73 83.5 69.9 86.1C68 87.7 66.2 89 65.9 89C65.6 89 64.8 90.1 64.2 91.5C63.3 93.5 63.3 94 64.5 94C65.8 94 68 96.9001 68 98.7001C68 99.1001 67 100.6 65.8 102C64.5 103.4 62.9 105.8 62.1 107.3C60.7 109.9 60.3 110.1 55.2 109.8C50.7 109.6 49.5 109.8 48.6 111.3C48 112.4 46.3 114.6 44.8 116.3C43.3 118.1 42 120 42 120.5C41.9 121.1 40.6 123.1 39 125C37.3 126.9 36 128.8 36 129.3C36 129.8 34.6 132.1 33 134.5C30.1 138.7 30 139.2 30.6 146.7C31.2 155.9 30.2 158.1 24.7 158.6C20.8 158.9 20.4 158.4 19.6 152.2C19.2 148.9 16.3 144.7 15 145.5C14.6 145.8 14 147.8 13.6 150.1C13.2 152.4 12.6 154.8 12.2 155.4C11.9 156 11.5 157 11.4 157.5C11.3 158.1 10.4 161.3 9.50001 164.8C7.60001 172.2 7.79999 175.5 10.3 175.5C12.8 175.5 14 177.9 13.9 182.5C13.8 184.7 14.1 189.6 14.4 193.4C14.8 197.9 14.7 200.7 13.9 201.6C12.3 203.6 13.5 203.4 26.5 200C34.2 198.1 37.9 197.5 38.7 198.2C39.9 199.2 42.1 205.6 42.4 209C42.7 211.8 43.9 212.7 46.6 212.2C50.2 211.5 51 213.2 51.6 222.7C51.9 227 52.2 231.4 52.4 232.5C52.9 236.1 55.2 249.4 56.1 254.2C57.1 259.4 56.5 262 54.5 262C53.7 262 52.9 262.4 52.5 263C52 263.8 55.2 278.3 56.7 282C57 282.8 57.3 283.8 57.2 284.1C57.1 284.5 57.5 286.3 58.1 288.1C62 301.2 63.1 309 60.9 309C58.8 309 60.5 322.8 62.7 323C62.8 323 64.5 320.6 66.6 317.8V317.8ZM308.6 236.5C307.8 232.4 306.7 228.3 304.8 222C303.7 218.4 302.6 214.6 302.5 213.5C301.2 205.5 296.3 188.3 293.9 183.8C292.4 180.8 292.8 176 294.7 175.3C295.6 174.9 296.6 175.2 296.8 175.8C297 176.5 297.9 177 298.8 177C299.8 177 301.6 177.9 303 179.1C304.4 180.2 306.7 182 308.3 183.1L311 185.1V176.7V168.4L304.8 165.6C301.3 164.1 297.5 162.3 296.2 161.7C293.9 160.6 294.1 160.5 285.9 168C285 168.8 280.5 172.9 276 177C271.4 181.1 263.5 188.8 258.4 194C250 202.5 249.1 203.8 249.2 207.1C249.2 209.1 249.5 211.2 249.9 211.7C250.3 212.3 253.2 211.8 257.5 210.4C261.4 209.1 265.4 208 266.6 208C267.7 208 269 207.6 269.6 207.1C270.1 206.6 272.2 205.8 274.2 205.5C277.3 204.9 278.1 205.1 278.7 206.6C279 207.7 279.6 208.7 279.9 209C281.1 210.1 285 218 285 219.4C285 220.2 285.3 221 285.8 221.2C286.9 221.7 292 232.8 292 234.8C292 238 294 238.8 301.6 238.7C308.4 238.5 308.9 238.3 308.6 236.5V236.5ZM10.5 204.6C12.2 203.4 12.1 203.3 9.20002 203.4C7.40002 203.5 6.00001 204 6.00001 204.8C6.00001 206.4 8.20001 206.3 10.5 204.6V204.6Z" fill="#010101"/>
<path d="M173 58C172.2 57.5 170.3 57 168.8 57C166.1 57 166 56.8 166 52.1C166 49.4 166.4 46 167 44.5C168 42 168.2 41.9 175.7 42.1C188 42.4 191 43 191 45.1C191 47.4 189.1 51.9 187.2 54.3C186.2 55.3 184.3 56 182 56C179.9 56 177.7 56.7 177 57.5C175.5 59.2 175 59.3 173 58Z" fill="#010101"/>
<path d="M46.5 400.2C40.5 395.8 27.7 382.9 26.1 379.7C24.8 377.3 24.9 376.5 27.1 371.8C28.4 369 30.6 365.2 32 363.3C33.4 361.5 36.1 357.7 38 354.9C39.9 352.1 42.1 349.2 42.7 348.5C43.8 347.4 47.2 343 56 331.7C57.2 330.2 57.9 328.3 57.6 327.4C57.3 326.6 57.4 326.2 58 326.5C59.7 327.6 59.1 329 54.7 334.8C52.3 338 46.9 345 42.7 350.5C38.5 356 34.2 361.6 33.2 363C32.1 364.4 30.3 367.4 29.1 369.7C24.8 378.3 26.1 381 42 395C48.8 401 49.8 401.5 54 401.5C58 401.5 59.8 400.7 67.5 395.5C76.1 389.7 88.4 378.2 100.4 365C103.7 361.4 107.3 357.8 108.4 357C110.8 355.3 87.3 380.4 80.4 386.8C77.9 389.2 72 393.6 67.3 396.7C56.6 403.8 52.3 404.5 46.5 400.2V400.2Z" fill="#715A32"/>
<path d="M52.2 398.2C49.2 397.3 34.3 384.3 31.9 380.4C30.9 378.7 30 376.3 30 375.2C30 372.3 36.8 362.3 48.2 348.5C50.9 345.2 55.9 338.7 59.4 334C70.9 318.2 77.8 309.5 86.4 300C91.1 294.8 98.2 286.7 102.2 282C115.4 266.6 129.2 251.9 151.6 229.5C177.6 203.7 208.6 173.8 210.6 172.7C211.3 172.3 215.3 167.8 219.4 162.7C223.4 157.6 227.8 152.3 229.1 150.9C230.4 149.5 233.5 145.9 236 142.9C238.5 139.9 246.2 131.7 253.2 124.5C267.5 109.8 269.3 107.7 286.2 85C288.1 82.5 290.3 80.4 291.2 80.2C292.2 80 297.1 83.1 302.2 87.1C312.9 95.5 332.4 112.9 332.8 114.4C332.9 115 322.8 125.4 310.4 137.5C272.8 174.1 230.3 216.6 214.9 233C198.2 250.8 178 273.5 175.5 277.3C174 279.6 156.5 299.4 148.9 307.5C139.5 317.5 137 320.3 133 325.1C130 328.7 119.8 340.1 105.5 356C98.2 364 76.6 385 72.2 388.3C69.8 390.1 66.2 392.9 64.2 394.6C60.3 398 55.9 399.2 52.2 398.2V398.2Z" fill="#715A32"/>
<path d="M199.8 363.3C201 363.1 203 363.1 204.3 363.3C205.5 363.5 204.5 363.7 202 363.7C199.5 363.7 198.5 363.5 199.8 363.3Z" fill="#715A32"/>
<path d="M156.8 362.3C158 362.1 159.8 362.1 160.8 362.3C161.7 362.6 160.7 362.8 158.5 362.7C156.3 362.7 155.5 362.5 156.8 362.3Z" fill="#715A32"/>
<path d="M114 352.4C114 351.9 118.5 346.2 124 339.9C129.6 333.7 136.9 325.2 140.3 321.2C143.7 317.2 148.5 311.8 151 309.2C153.5 306.6 160.9 298.4 167.4 291C182 274.5 181.5 275.1 180.2 277.5C179.7 278.6 177.9 280.9 176.4 282.5C174.8 284.2 171.6 287.8 169.2 290.5C166.8 293.3 161.1 299.6 156.5 304.5C151.9 309.5 143.4 319.1 137.4 326C131.5 332.9 125.1 340.3 123.1 342.5C121.1 344.7 118.3 348.1 116.8 350C115.3 351.9 114 353 114 352.4V352.4Z" fill="#715A32"/>
<path d="M67.2 316.9C69.6 313.6 72.4 310.1 73.4 309.2C74.5 308.3 72.7 311 69.5 315.3C62.7 324.4 61.1 325.6 67.2 316.9V316.9Z" fill="#715A32"/>
<path d="M76 306.3C76 305.9 81.7 298.9 88.8 290.8C95.8 282.8 106.5 270.5 112.5 263.5C118.6 256.5 125.5 249 128 246.8C130.5 244.6 137.4 238 143.4 232.1C149.9 225.9 152.2 224 149.1 227.5C146.1 230.8 140.3 236.7 136.1 240.5C122.7 252.6 115.8 260 98.3 281.1C95 285.2 89.7 291.2 86.6 294.5C83.6 297.8 81 300.8 81 301.1C81 302 76 307.2 76 306.3Z" fill="#715A32"/>
<path d="M219.3 295.5C219.3 292.8 219.5 291.7 219.7 293.3C219.9 294.8 219.9 297 219.7 298.3C219.5 299.5 219.3 298.3 219.3 295.5Z" fill="#715A32"/>
<path d="M317 293.3C316.7 291 316.8 289.4 317.3 289.9C317.8 290.4 318 292.3 317.8 294.1C317.5 297.4 317.4 297.4 317 293.3V293.3Z" fill="#715A32"/>
<path d="M293.5 269.9C294.2 268.9 302 264.7 302 265.4C302 265.6 300 267 297.5 268.4C295 269.7 293.2 270.5 293.5 269.9Z" fill="#715A32"/>
<path d="M334.3 259.8C333.1 258.3 331.9 255 332.5 255C332.7 255 333.5 256.4 334.4 258C335.9 261.2 335.9 261.8 334.3 259.8Z" fill="#715A32"/>
<path d="M54.5 252C54.1 249.7 54 247.7 54.3 247.4C54.5 247.1 55 248.8 55.4 251.1C55.8 253.4 55.9 255.5 55.6 255.7C55.4 255.9 54.9 254.3 54.5 252Z" fill="#715A32"/>
<path d="M354.2 231.5C354.2 229.9 354.6 227.2 355 225.5C356.1 221.3 356.1 225.4 355.1 230.5C354.4 233.9 354.2 234 354.2 231.5Z" fill="#715A32"/>
<path d="M159 216.1C159 214.7 178.2 196.7 181.9 194.6C182.7 194.1 180.3 196.5 176.5 200.1C172.7 203.6 167.2 208.8 164.3 211.6C161.4 214.4 159 216.4 159 216.1Z" fill="#715A32"/>
<path d="M5.40001 202.4C5.70001 200.1 6.7 199.8 7.2 201.8C7.5 202.9 7.19999 203.7 6.49999 203.7C5.79999 203.7 5.30001 203.1 5.40001 202.4V202.4Z" fill="#715A32"/>
<path d="M249 202.5C249 201.3 279.2 171.9 279.9 172.5C280.1 172.8 277.5 175.6 274 178.8C270.5 181.9 263.5 188.8 258.3 194C253.2 199.2 249 203.1 249 202.5Z" fill="#715A32"/>
<path d="M22 201C23.4 200.6 25.4 200.2 26.5 200.2C28.1 200.2 28 200.4 26 201C24.6 201.4 22.6 201.8 21.5 201.8C19.9 201.8 20 201.6 22 201Z" fill="#715A32"/>
<path d="M183.1 192.8C183.3 192.6 186 190.3 189 187.5L194.5 182.5L189.5 187.8C186.8 190.6 184.1 193 183.6 193C183.1 193 182.9 192.9 183.1 192.8Z" fill="#715A32"/>
<path d="M2.20001 176C2.20001 174.1 2.40001 173.3 2.70001 174.3C2.90001 175.2 2.90001 176.8 2.70001 177.8C2.40001 178.7 2.20001 177.9 2.20001 176Z" fill="#715A32"/>
<path d="M17 146.5C16.3 145.7 15.4 145.3 14.9 145.6C14.4 145.9 14.2999 145.4 14.5999 144.5C14.9999 143.6 15.3 143 15.4 143.2C15.5 143.4 16.4 144.5 17.4 145.8C18.5 147 19.1 148 18.8 148C18.5 148 17.7 147.3 17 146.5V146.5Z" fill="#715A32"/>
<path d="M64 103.3C64 102.7 64.7 101.7 65.5 101C66.3 100.3 67 99 67.1 98.1C67.1 97.1 67.3 97 67.7 97.7C67.9 98.4 67.2 100.2 66.1 101.6C64.9 103.1 64 103.8 64 103.3V103.3Z" fill="#715A32"/>
<path d="M64.2 94.9C62.3 94.2 61.9 92 63.6 92C63.9 92 63.8 92.5 63.5 93C63.2 93.6 63.6 94 64.4 94C65.2 94 66.2 94.5 66.5 95C67.2 96.2 67.2 96.2 64.2 94.9Z" fill="#715A32"/>
<path d="M249 90.7C249 89.8 247.9 89 246.3 88.7L243.5 88.3L246.3 88.1C248.9 88 251.1 90.3 249.6 91.7C249.3 92.1 249 91.6 249 90.7V90.7Z" fill="#715A32"/>
<path d="M230.6 77.4C230.2 76 230.1 74.6 230.3 74.3C230.6 74.1 231.1 75.1 231.4 76.6C231.8 78 231.9 79.4 231.7 79.7C231.4 79.9 230.9 78.9 230.6 77.4Z" fill="#715A32"/>
<path d="M176.4 57.3C177.7 55.7 179.3 55 181.4 55.1L184.5 55.3L181.5 55.7C179.9 56 177.6 56.9 176.5 57.8C174.5 59.5 174.5 59.5 176.4 57.3Z" fill="#715A32"/>
<path d="M287.8 55.3C287.6 54.8 287.7 52.9 288.1 51L288.7 47.5L288.9 51.8C289 55.7 288.6 57 287.8 55.3Z" fill="#715A32"/>
<path d="M188.1 52C188.1 50.6 190.9 44.8 191 46.1C191 46.5 190.3 48.3 189.5 50.1C188.7 52 188.1 52.8 188.1 52Z" fill="#715A32"/>
<path d="M147.8 48C149 47.5 150 46.2 150 45.1C150 44 150.4 42.9 150.9 42.6C152 41.9 151.1 46 149.7 47.8C149.2 48.4 148 49 147.1 48.9C146 48.9 146.2 48.6 147.8 48V48Z" fill="#715A32"/>
<path d="M223.2 38.5C223.6 37.9 224.4 36.3 224.9 34.9C225.5 33.4 225.9 33.1 225.9 34.1C226 35 225.2 36.6 224.3 37.7C223.3 38.7 222.8 39.1 223.2 38.5Z" fill="#715A32"/>
<path d="M188 28C185.8 27.3 186 27.2 189.3 27.3C191.3 27.4 193 27.8 193 28.2C193 29.2 191.4 29.1 188 28Z" fill="#715A32"/>
<path d="M180 22.8C180 22.4 181.6 22 183.5 22C185.4 22 187 22.2 187 22.4C187 22.6 185.4 23 183.5 23.2C181.6 23.4 180 23.2 180 22.8Z" fill="#715A32"/>
<path d="M50.3 402.3C49.7 401.9 51.3 401.5 53.9 401.5C58 401.5 59.7 400.7 67.5 395.5C76.1 389.7 88.4 378.2 100.4 365C103.7 361.4 107.3 357.8 108.4 357C110.8 355.3 87.3 380.4 80.4 386.8C69.3 397.2 54.2 404.9 50.3 402.3Z" fill="#494949"/>
<path d="M41.8 396.3C33 388.3 27.6 382.6 26.1 379.7C24.7 377.1 24.8 376.5 27.8 370.7C31.6 363.4 34.6 359 45.6 345C50.2 339.2 54.8 333.3 56 331.7C57.2 330.2 57.9 328.3 57.6 327.4C57.3 326.6 57.4 326.2 58 326.5C59.7 327.6 59.1 329 54.7 334.8C52.3 338 46.9 345 42.7 350.5C38.5 356 34.2 361.6 33.2 363C30 367.2 27 373.8 27 376.6C27 379.8 30.1 384.3 35.9 389.5C45.2 397.8 48.5 401 47.8 401C47.4 401 44.7 398.9 41.8 396.3V396.3Z" fill="#494949"/>
<path d="M59.1 397.8C59.3 397.6 60.9 396.4 62.5 395L65.5 392.5L63.1 395.3C61.7 396.8 60.2 398 59.7 398C59.1 398 58.9 397.9 59.1 397.8Z" fill="#494949"/>
<path d="M93 368.6C93.8 367.5 96.9 364.1 99.9 361.1C104.6 356.2 104.8 356.1 101.7 360C98 364.6 90.3 372.1 93 368.6V368.6Z" fill="#494949"/>
<path d="M36 364C37.2 362.4 38.4 361 38.6 361C38.9 361 38.2 362.4 37 364C35.8 365.7 34.6 367 34.4 367C34.1 367 34.8 365.7 36 364Z" fill="#494949"/>
<path d="M314.7 310.5C315.7 309.2 316.9 308 317.4 308C317.9 308 317.3 309.1 316 310.5C313 313.7 312.4 313.7 314.7 310.5V310.5Z" fill="#494949"/>
<path d="M354.1 231.4C354.2 229.8 354.6 227.4 355 226C355.6 224.3 355.7 225.1 355.3 228.5C354.7 234.1 353.9 235.9 354.1 231.4V231.4Z" fill="#494949"/>
<path d="M0.200012 194C0.200012 192.1 0.400012 191.3 0.700012 192.3C0.900012 193.2 0.900012 194.8 0.700012 195.8C0.400012 196.7 0.200012 195.9 0.200012 194Z" fill="#494949"/>
<path d="M357.3 185C357.3 182 357.5 180.7 357.7 182.3C357.9 183.8 357.9 186.2 357.7 187.8C357.5 189.3 357.3 188 357.3 185Z" fill="#494949"/>
<path d="M370.9 158.3C357.1 145.8 353.9 141.8 354.1 137.3L354.2 134.5L355 137.7C355.4 139.5 356.4 142 357.3 143.3C359.8 147.2 375.6 161 377.5 161C379.7 161 392.2 154.3 401.5 148.2C407.6 144.2 420.5 133.9 422 131.8C422.3 131.4 425.7 127.8 429.6 123.8C442.5 110.4 444.7 105.8 439.5 103C438.1 102.2 433.6 98.1 429.5 93.8C425.4 89.5 421.4 86 420.5 86C417.6 86 411.4 82.2 407.7 78.1C404.9 75 404 73.2 404.1 70.7L404.2 67.5L405 71.3C406.1 77.2 413 83.3001 420.2 84.9001C424.1 85.8001 443 104.5 443 107.5C443 110.5 437.7 117.1 424.9 130C415 140 402.5 149.5 391.5 155.4C388.8 156.9 385.2 159 383.5 160C378.8 162.9 375.6 162.5 370.9 158.3V158.3Z" fill="#494949"/>
<path d="M367.4 148.2C358.6 139.8 358.2 139.3 357.6 134.1C356.3 124 351 117.5 339.1 111.5C336 110 329.9 105.2 325.1 100.5C320.4 95.9 314.7 90.9001 312.5 89.4001C310.3 88.0001 304.8 83.8 300.2 80.3L291.9 73.8L292.6 63.5C293.5 50.3 292.6 43.2 289.4 38.4C286.5 33.9 278.6 28.2 273.8 27C272 26.5 268 25.4 265 24.5C255.1 21.5 228 15.7 204.8 11.7C197.5 10.4 195 9.00003 199.6 8.90003C260.3 7.40003 274.9 6.90003 291 5.40003C307.8 3.90003 325 3.70003 325 4.90003C325 5.80003 332.8 11 334 11C334.5 11 335.3 11.6 335.7 12.3C336.1 13 337.9 14.5 339.6 15.6C349.6 21.7 365 33.4 376.4 43.4C396.9 61.4 398.3 62.9 400.3 70.8C401.9 76.8 402.8 78.5001 406.8 82.2001C409.8 85.0001 413.5 87.3001 416.9 88.4001C420.2 89.5001 423.6 91.5 425.8 93.8C432.3 100.5 438 107.4 438 108.4C438 110 424.6 124.5 416 132.4C405.7 141.9 382.1 157.1 377.8 157C377.1 157 372.4 153 367.4 148.2Z" fill="#494949"/>
<path d="M353 132.3C353 128.5 347.4 121.8 341.8 118.8C338.9 117.3 337.1 116 337.8 116C340.8 116 347.2 120.3 350 124.2C353.2 128.5 354.7 132.6 353.6 133.7C353.3 134.1 353 133.4 353 132.3V132.3Z" fill="#494949"/>
<path d="M12.8 131.5C13.3 130.4 14 128.8 14.3 128C14.8 126.7 14.9 126.7 14.9 128.1C15 128.9 14.3 130.5 13.4 131.6C11.9 133.5 11.9 133.5 12.8 131.5Z" fill="#494949"/>
<path d="M403.1 65C403 62.5 396.7 56.5 376.5 39.3C366.7 31 349.6 18 348.4 18C347.9 18 344.4 15.5 340.5 12.5C327.7 2.60002 325.2 1.60002 311.5 1.00002L299.5 0.400013L311.3 0.200031C325.4 3.14377e-05 326.2 0.300032 344.5 14.2C345.1 14.7 348.2 16.8 351.5 19C357.8 23.1 374.8 36.3 379 40.3C380.4 41.6 384.2 44.9 387.4 47.6C400.1 58 404.2 62.5 403.7 65.1L403.3 67.5L403.1 65V65Z" fill="#494949"/>
<path d="M62.9 64.6C64.2 63 68 60.5 68 61.3C68 61.5 66.5 62.7 64.8 64C62.7 65.5 62 65.7 62.9 64.6Z" fill="#494949"/>
<path d="M288.3 52C288.3 49.5 288.5 48.5 288.7 49.8C288.9 51 288.9 53 288.7 54.3C288.5 55.5 288.3 54.5 288.3 52Z" fill="#494949"/>
<path d="M286.1 41.8C284.1 35.7 277.7 31.8 264.1 28.3C258.9 27 254.3 25.6 254 25.3C252.9 24.1 272.5 29.2001 276 31.0001C282.8 34.6001 289.7 42.6001 287.7 44.6001C287.4 44.9001 286.7 43.6 286.1 41.8Z" fill="#494949"/>
<path d="M243.5 23.5C240.2 22.7 228.7 20.4 218 18.3C207.3 16.2 199.2 14.4001 200 14.2001C200.9 14.1001 210.8 15.8 222 18.1C233.3 20.4 244.7 22.6 247.4 23.1C252.4 23.9 254.9 25.1 251.4 24.9C250.4 24.9 246.8 24.2 243.5 23.5Z" fill="#494949"/>
<path d="M181.8 22.3C183 22.1 184.8 22.1 185.8 22.3C186.7 22.6 185.7 22.8 183.5 22.7C181.3 22.7 180.5 22.5 181.8 22.3Z" fill="#494949"/>
<path d="M190.3 22.3C191.2 22.1 192.8 22.1 193.8 22.3C194.7 22.6 193.9 22.8 192 22.8C190.1 22.8 189.3 22.6 190.3 22.3Z" fill="#494949"/>
<path d="M187.2 12.4C183.1 10.6 183 6.99999 187.2 5.89999C191.4 4.79999 221 3.7 221 4.6C221 5.1 216.2 5.6 210.2 5.6C204.3 5.7 197.3 5.99998 194.5 6.29998C191.8 6.59998 188.5 6.89999 187.3 6.89999C184.4 6.99999 184 11 186.8 11C187.8 11 189 11.4 189.6 11.9C190.1 12.4 192.3 13 194.5 13.3L198.5 13.7L194.5 13.8C192.3 13.8 189 13.2 187.2 12.4V12.4Z" fill="#494949"/>
<path d="M222.5 5.10008C223.1 4.60008 236.8 3.60007 253 3.00007C284.4 1.80007 294.4 1.20008 297.3 0.600078C298.2 0.400078 299 0.600078 299 1.10008C299 1.60008 296.6 2.00008 293.8 2.10008C290.9 2.10008 287.2 2.30007 285.5 2.50007C283.9 2.70007 270.6 3.30007 256 3.90007C241.4 4.50007 227.7 5.20007 225.5 5.50007C223 5.90007 221.9 5.70008 222.5 5.10008Z" fill="#494949"/>
</svg>
